<svg width="166" height="52" viewBox="0 0 166 52" fill="none" xmlns="http://www.w3.org/2000/svg">
<rect x="8.89636" y="6.63599" width="2.03984" height="29.2962" fill="white"/>
<rect x="10.6178" y="5" width="4.24761" height="1.63596" fill="white"/>
<rect x="14.5822" y="6.43994" width="1.84063" height="34.4536" fill="white"/>
<rect x="15.8564" y="13.3997" width="4.95554" height="1.67993" fill="white"/>
<path d="M20.5997 41.3955V15.0196H26.6172V16.9395H22.6527V41.3955H20.5997Z" fill="white"/>
<path d="M26.4755 40.3532V16.7596H30.8647V18.6195H28.7409V40.3532H26.4755Z" fill="white"/>
<rect x="30.7231" y="18.4995" width="2.01762" height="1.70994" fill="white"/>
<rect x="32.3513" y="20.1794" width="1.84063" height="11.5796" fill="white"/>
<rect x="30.8331" y="31.759" width="1.84063" height="5.33979" fill="white"/>
<rect x="6.79901" y="21.7833" width="2.21349" height="1.87594" fill="white"/>
<path d="M0.827209 20.304H6.61527V22.017H3.03219V25.3651H0.827209V20.304Z" fill="white"/>
<rect x="2.94031" y="25.2093" width="2.20498" height="1.86872" fill="white"/>
<rect x="4.96155" y="26.7666" width="1.83748" height="3.58172" fill="white"/>
<rect x="6.70715" y="30.1926" width="2.1892" height="3.73745" fill="white"/>
<rect x="8.63647" y="33.6964" width="2.29969" height="3.40229" fill="white"/>
<path d="M10.5659 42.1836V37.0446H12.7708V40.3149H28.5732V37.0446H30.7781V42.1836H10.5659Z" fill="white"/>
<path d="M56.4477 40.0462C62.1277 40.0462 65.2877 36.6462 66.2077 32.5262L62.2077 31.6062C61.7277 34.3662 60.0077 36.3662 56.5277 36.3662C53.0877 36.3662 50.4477 33.9662 50.4477 29.8062V29.4462C50.4477 25.2862 53.0877 22.8862 56.5277 22.8862C60.0077 22.8862 61.7277 25.0062 62.0877 27.6462L66.0877 26.8062C65.3277 22.6462 62.1277 19.2062 56.4477 19.2062C50.7277 19.2062 46.3277 23.0062 46.3277 29.3662V29.8862C46.3277 36.2862 50.7277 40.0462 56.4477 40.0462ZM70.9596 39.4862H75.0796V11.4862H70.9596V39.4862ZM83.2739 17.0862C84.8739 17.0862 86.1139 15.9662 86.1139 14.2862C86.1139 12.6062 84.8739 11.4862 83.2739 11.4862C81.6339 11.4862 80.4339 12.6062 80.4339 14.2862C80.4339 15.9662 81.6339 17.0862 83.2739 17.0862ZM81.1939 39.4862H85.3139V19.7662H81.1939V39.4862ZM100.588 40.0462C106.268 40.0462 109.428 36.6462 110.348 32.5262L106.348 31.6062C105.868 34.3662 104.148 36.3662 100.668 36.3662C97.2283 36.3662 94.5883 33.9662 94.5883 29.8062V29.4462C94.5883 25.2862 97.2283 22.8862 100.668 22.8862C104.148 22.8862 105.868 25.0062 106.228 27.6462L110.228 26.8062C109.468 22.6462 106.268 19.2062 100.588 19.2062C94.8683 19.2062 90.4683 23.0062 90.4683 29.3662V29.8862C90.4683 36.2862 94.8683 40.0462 100.588 40.0462ZM115.1 39.4862H119.22V31.2862H119.86L128.02 39.4862H133.42L123.14 29.3262L133.1 19.7662H127.62L119.86 27.4462H119.22V11.4862H115.1V39.4862ZM137.131 39.4862H141.251V27.8862C141.251 24.8462 143.131 23.4062 145.811 23.4062H148.331V19.6862H145.971C143.851 19.6862 142.451 20.4462 141.811 22.0862H141.171V19.7662H137.131V39.4862ZM152.6 39.4862H156.72V27.8862C156.72 24.8462 158.6 23.4062 161.28 23.4062H163.8V19.6862H161.44C159.32 19.6862 157.92 20.4462 157.28 22.0862H156.64V19.7662H152.6V39.4862Z" fill="white"/>
</svg>
