<svg width="302" height="297" viewBox="0 0 302 297" fill="none" xmlns="http://www.w3.org/2000/svg">
<path d="M66.0606 1H1V128H114V49.0541H66.0606V1Z" stroke="white"/>
<path d="M253.061 169H188V296H301V217.054H253.061V169Z" stroke="white"/>
<path d="M114 128L300.5 295.5" stroke="white"/>
<path d="M1 128L188 296" stroke="white"/>
<path d="M1 1.5L188 169" stroke="white"/>
<path d="M1 27L188 194.5" stroke="white"/>
<path d="M1 55L188 222.5" stroke="white"/>
<path d="M1 85L188 252.5" stroke="white"/>
<path d="M1 111L188 278.5" stroke="white"/>
<path d="M65.5 48.5L253 217" stroke="white"/>
<path d="M66 1L253 169" stroke="white"/>
<path d="M113.5 49L301 217" stroke="white"/>
<path d="M113 72L300.5 240" stroke="white"/>
<path d="M113 101L300.5 269" stroke="white"/>
</svg>
