<svg width="313" height="363" viewBox="0 0 313 363" fill="none" xmlns="http://www.w3.org/2000/svg">
<circle cx="230.949" cy="237.786" r="3.98358" fill="white" stroke="#6FCBFF"/>
<path d="M4.61334 358.372C40.6031 353.777 152.558 324.995 220.12 251.29C300.497 163.606 264.199 68.9225 238.929 4.6004" stroke="white"/>
<circle cx="238.644" cy="4.6004" r="3.98358" fill="white" stroke="#6FCBFF"/>
<path d="M156.204 324.992L308.299 146.824" stroke="white"/>
<circle cx="308.299" cy="146.824" r="3.98358" fill="white" stroke="#6FCBFF"/>
<circle cx="156.204" cy="324.992" r="3.98358" fill="white" stroke="#6FCBFF"/>
<circle cx="4.61334" cy="358.372" r="3.98358" fill="white" stroke="#6FCBFF"/>
<rect x="231.534" y="244.034" width="2.37471" height="34.1055" transform="rotate(-27.0235 231.534 244.034)" fill="white"/>
<rect x="232.454" y="241.427" width="4.94491" height="1.90453" transform="rotate(-27.0235 232.454 241.427)" fill="white"/>
<rect x="237.327" y="240.823" width="2.14279" height="40.1095" transform="rotate(-27.0235 237.327 240.823)" fill="white"/>
<rect x="242.329" y="247.367" width="5.76905" height="1.95571" transform="rotate(-27.0235 242.329 247.367)" fill="white"/>
<path d="M262.057 273.891L248.105 246.538L254.346 243.355L255.361 245.346L251.25 247.443L264.186 272.805L262.057 273.891Z" fill="white"/>
<path d="M267.599 269.702L255.119 245.234L259.671 242.913L260.655 244.842L258.452 245.965L269.948 268.504L267.599 269.702Z" fill="white"/>
<rect x="260.444" y="244.792" width="2.34883" height="1.99064" transform="rotate(-27.0235 260.444 244.792)" fill="white"/>
<rect x="263.022" y="245.673" width="2.14279" height="13.4805" transform="rotate(-27.0235 263.022 245.673)" fill="white"/>
<rect x="267.572" y="258.485" width="2.14279" height="6.21638" transform="rotate(-27.0235 267.572 258.485)" fill="white"/>
<rect x="237.371" y="260.852" width="2.57686" height="2.18389" transform="rotate(-27.0235 237.371 260.852)" fill="white"/>
<path d="M230.395 262.477L236.398 259.415L237.304 261.192L233.588 263.087L235.359 266.559L233.072 267.725L230.395 262.477Z" fill="white"/>
<rect x="235.181" y="266.446" width="2.56695" height="2.1755" transform="rotate(-27.0235 235.181 266.446)" fill="white"/>
<rect x="238.101" y="266.992" width="2.13912" height="4.16971" transform="rotate(-27.0235 238.101 266.992)" fill="white"/>
<rect x="241.724" y="269.622" width="2.54858" height="4.35099" transform="rotate(-27.0235 241.724 269.622)" fill="white"/>
<rect x="245.578" y="272.235" width="2.67721" height="3.96082" transform="rotate(-27.0235 245.578 272.235)" fill="white"/>
<path d="M252.068 280.016L249.349 274.686L251.636 273.52L253.366 276.912L269.754 268.553L268.024 265.162L270.311 263.995L273.029 269.325L252.068 280.016Z" fill="white"/>
</svg>
